<svg xmlns="http://www.w3.org/2000/svg" viewBox="0 0 64 64"><path d="M53.85,35a1.5,1.5,0,0,1-1.5-1.5,17.87,17.87,0,0,0-.41-3.67A18.53,18.53,0,0,0,43.4,17.93,1.5,1.5,0,0,1,45,15.39a21.37,21.37,0,0,1,9.87,13.8,20,20,0,0,1,.49,4.32A1.5,1.5,0,0,1,53.86,35Z" style="fill:#2486c8"/><path d="M48.59,35a1.51,1.51,0,0,1-1.5-1.49,12.18,12.18,0,0,0-.29-2.66,13.42,13.42,0,0,0-6.2-8.64,1.5,1.5,0,1,1,1.6-2.54,16.29,16.29,0,0,1,7.52,10.52,15,15,0,0,1,.37,3.3A1.5,1.5,0,0,1,48.6,35Z" style="fill:#2486c8"/><path d="M31.13,29.54A16.42,16.42,0,0,0,31.78,33a13.75,13.75,0,0,0,2.46-3.24,10.28,10.28,0,0,0,.44-6.17A6.26,6.26,0,0,0,31.13,29.54Z" style="fill:#6cc64c"/><path d="M22.8,31.93c.38,2,2.49,4.28,5.35,5.52a5.2,5.2,0,0,0,1.68.47,5.6,5.6,0,0,0-1.38-2.66A10.43,10.43,0,0,0,22.8,31.93Z" style="fill:#6cc64c"/><path d="M38.34,36.09c-2.26.36-3.69,1.64-4.92,4.29a6.56,6.56,0,0,0-.5,1.78,13.69,13.69,0,0,0,2.81-1.48A5.78,5.78,0,0,0,38.34,36.09Z" style="fill:#6cc64c"/><path d="M55.38,37.75a1.5,1.5,0,0,0-1.5-1.49h0a1.44,1.44,0,0,0-1.46,1.46l0,9.25a.52.52,0,0,1-.52.52h-19a.61.61,0,0,1-.56-.6l0-2a.6.6,0,0,1,.42-.57,15.92,15.92,0,0,0,4.14-2c2.4-1.66,3.52-4,3.52-7.35a1,1,0,0,0-.31-.72.94.94,0,0,0-.73-.27,7.81,7.81,0,0,0-7,4.21V35.31l.09-.2A16.56,16.56,0,0,0,36,30.61a12.16,12.16,0,0,0,.18-8.81A1,1,0,0,0,35,21.25a8.37,8.37,0,0,0-5.9,8.45A18.91,18.91,0,0,0,30,34l-.09-.1c-2.38-2.57-5.43-4.09-8.16-4a1,1,0,0,0-1,.89c-.34,3.2,2.36,6.71,6.58,8.54a7,7,0,0,0,2.6.66.38.38,0,0,1,.36.38l0,6.58a.6.6,0,0,1-.55.59H12.14a.51.51,0,0,1-.51-.52V34.11a18.45,18.45,0,0,1,4.22-12,21.1,21.1,0,0,1,5.86-4.84c3-1.7,6.13-3.54,9.27-5.39a1.73,1.73,0,0,1,2.06,0c1.6,1,2.38,1.36,3.07,1.72s1.46.76,3.26,1.9A1.5,1.5,0,0,0,41,12.93c-1.91-1.2-2.63-1.58-3.47-2-.65-.34-1.39-.73-2.93-1.64a4.7,4.7,0,0,0-5.12,0c-3.12,1.85-6.29,3.68-9.24,5.38a24,24,0,0,0-6.68,5.54,21.35,21.35,0,0,0-4.9,14V47.22a2.93,2.93,0,0,0,3.27,3.28H52.15a3.21,3.21,0,0,0,3.21-3.21c0-1.91,0-3.08,0-4.13C55.38,41.68,55.39,40.44,55.38,37.75Zm-22,2.63c1.23-2.65,2.66-3.93,4.92-4.29a5.78,5.78,0,0,1-2.61,4.59,13.69,13.69,0,0,1-2.81,1.48A6.56,6.56,0,0,1,33.42,40.38Zm-5.27-2.93c-2.86-1.24-5-3.48-5.35-5.52a10.43,10.43,0,0,1,5.65,3.33,5.6,5.6,0,0,1,1.38,2.66A5.2,5.2,0,0,1,28.15,37.45Zm6.53-13.91a10.28,10.28,0,0,1-.44,6.17A13.75,13.75,0,0,1,31.78,33a16.42,16.42,0,0,1-.65-3.41A6.26,6.26,0,0,1,34.68,23.54Z" style="fill:#065132"/></svg>
