<svg xmlns="http://www.w3.org/2000/svg" viewBox="0 0 64 64"><path d="M53.84,35.065a1.5,1.5,0,0,1-1.5-1.49,17.185,17.185,0,0,0-.413-3.67,18.5,18.5,0,0,0-8.536-11.919,1.5,1.5,0,0,1,1.6-2.538,21.393,21.393,0,0,1,9.864,13.8,20.225,20.225,0,0,1,.487,4.313,1.5,1.5,0,0,1-1.491,1.508Z" fill="#2486c8"/><path d="M48.587,35.065a1.5,1.5,0,0,1-1.5-1.488,12.353,12.353,0,0,0-.3-2.653A13.4,13.4,0,0,0,40.6,22.285a1.5,1.5,0,0,1,1.6-2.539,16.3,16.3,0,0,1,7.517,10.517,15.412,15.412,0,0,1,.373,3.292,1.5,1.5,0,0,1-1.489,1.51Z" fill="#2486c8"/><path d="M31.129,29.6a16.626,16.626,0,0,0,.649,3.409,13.93,13.93,0,0,0,2.461-3.241,10.3,10.3,0,0,0,.437-6.174A6.273,6.273,0,0,0,31.129,29.6Z" fill="#6cc64c"/><path d="M22.808,31.979C23.185,34.02,25.3,36.26,28.15,37.5a5.142,5.142,0,0,0,1.679.471,5.576,5.576,0,0,0-1.374-2.661A10.475,10.475,0,0,0,22.808,31.979Z" fill="#6cc64c"/><path d="M38.338,36.137c-2.257.363-3.687,1.641-4.914,4.288a6.521,6.521,0,0,0-.5,1.786,13.937,13.937,0,0,0,2.811-1.479A5.8,5.8,0,0,0,38.338,36.137Z" fill="#6cc64c"/><path d="M55.368,37.835A1.539,1.539,0,0,0,53.831,36.3h0a1.457,1.457,0,0,0-1.462,1.465l-.025,9.211a.556.556,0,0,1-.556.555H32.839a.6.6,0,0,1-.557-.6L32.31,45a.647.647,0,0,1,.449-.606,16.238,16.238,0,0,0,4.108-2.013c2.4-1.66,3.52-3.993,3.52-7.342a1,1,0,0,0-.307-.721.957.957,0,0,0-.731-.278,7.8,7.8,0,0,0-7.039,4.211V35.379a.309.309,0,0,1,.1-.226,16.75,16.75,0,0,0,3.617-4.5,12.129,12.129,0,0,0,.189-8.773,1.008,1.008,0,0,0-1.207-.566,8.363,8.363,0,0,0-5.873,8.439,19.034,19.034,0,0,0,.875,4.3c-.031-.035-.056-.069-.089-.1-2.38-2.573-5.432-4.088-8.162-4.053a.994.994,0,0,0-.981.891c-.349,3.2,2.355,6.712,6.576,8.544a6.987,6.987,0,0,0,2.563.648.423.423,0,0,1,.393.425l-.028,6.536a.6.6,0,0,1-.555.592H12.19a.557.557,0,0,1-.557-.556l-.01-7.619c0-1.745,0-3.474,0-5.2A18.421,18.421,0,0,1,15.85,22.119a20.822,20.822,0,0,1,5.85-4.84c2.962-1.7,6.136-3.538,9.271-5.395a1.735,1.735,0,0,1,2.057.022c1.605.955,2.385,1.363,3.072,1.722.781.408,1.456.761,3.26,1.895a1.5,1.5,0,0,0,1.6-2.538c-1.906-1.2-2.629-1.577-3.468-2.015-.653-.341-1.394-.728-2.927-1.641a4.711,4.711,0,0,0-5.12-.025c-3.12,1.849-6.284,3.676-9.237,5.376a23.745,23.745,0,0,0-6.673,5.537A21.339,21.339,0,0,0,8.625,34.162c0,1.725,0,3.451,0,5.194l0,2.416v5.49a2.925,2.925,0,0,0,3.263,3.28H52.105a3.249,3.249,0,0,0,3.245-3.251c0-1.877.009-3.04.016-4.083C55.376,41.732,55.385,40.5,55.368,37.835Zm-21.944,2.59c1.217-2.626,2.634-3.9,4.861-4.279a.043.043,0,0,1,.048.045,5.784,5.784,0,0,1-2.6,4.541,13.937,13.937,0,0,1-2.811,1.479A6.521,6.521,0,0,1,33.424,40.425ZM28.15,37.5c-2.826-1.226-4.925-3.435-5.331-5.461a.042.042,0,0,1,.048-.048,10.522,10.522,0,0,1,5.588,3.319,5.576,5.576,0,0,1,1.374,2.661A5.142,5.142,0,0,1,28.15,37.5Zm6.481-13.885a.04.04,0,0,1,.057.026,10.289,10.289,0,0,1-.449,6.125,13.827,13.827,0,0,1-2.415,3.2.038.038,0,0,1-.064-.015,16.493,16.493,0,0,1-.631-3.348A6.268,6.268,0,0,1,34.631,23.613Z" fill="#065132"/></svg>
