<svg xmlns="http://www.w3.org/2000/svg" viewBox="0 0 51.309 64"><title>Agribus</title><path d="M56.248,29.087A1.647,1.647,0,0,1,54.6,27.451a18.755,18.755,0,0,0-.453-4.027,20.3,20.3,0,0,0-9.367-13.08,1.645,1.645,0,0,1,1.753-2.785A23.477,23.477,0,0,1,57.359,22.7a22.106,22.106,0,0,1,.534,4.733,1.645,1.645,0,0,1-1.636,1.655Z" transform="translate(-6.626)" style="fill:#fafafa"/><path d="M50.483,29.087a1.644,1.644,0,0,1-1.645-1.633,13.623,13.623,0,0,0-.328-2.911,14.707,14.707,0,0,0-6.792-9.481,1.646,1.646,0,0,1,1.753-2.786A17.894,17.894,0,0,1,51.72,23.818a16.935,16.935,0,0,1,.409,3.612A1.645,1.645,0,0,1,50.5,29.087Z" transform="translate(-6.626)" style="fill:#fafafa"/><path d="M57.924,32.084a1.646,1.646,0,0,0-1.646-1.637h-.041a1.6,1.6,0,0,0-1.6,1.607L54.606,42.2a.569.569,0,0,1-.57.568H33.2a.659.659,0,0,1-.611-.662l.03-2.155a.666.666,0,0,1,.464-.625,17.834,17.834,0,0,0,4.537-2.219c2.635-1.822,3.863-4.382,3.863-8.057a1.1,1.1,0,0,0-.336-.791,1.048,1.048,0,0,0-.8-.3,8.565,8.565,0,0,0-7.725,4.62V29.413l.1-.217A18.428,18.428,0,0,0,36.7,24.25a13.306,13.306,0,0,0,.194-9.658,1.072,1.072,0,0,0-1.28-.6,9.173,9.173,0,0,0-6.476,9.269,20.9,20.9,0,0,0,.959,4.717c-.034-.038-.061-.076-.1-.114-2.612-2.823-5.961-4.486-8.958-4.447a1.089,1.089,0,0,0-1.076.978c-.383,3.509,2.585,7.365,7.217,9.375a7.682,7.682,0,0,0,2.851.715.422.422,0,0,1,.392.424l-.03,7.212a.657.657,0,0,1-.61.649H10.5a.57.57,0,0,1-.57-.569l-.01-8.4c0-1.916,0-3.813,0-5.709a20.215,20.215,0,0,1,4.638-13.21,22.831,22.831,0,0,1,6.42-5.311C24.228,7.7,27.71,5.686,31.151,3.648a1.9,1.9,0,0,1,2.257.024c1.762,1.048,2.618,1.495,3.372,1.89.857.448,1.6.835,3.577,2.08a1.646,1.646,0,0,0,1.752-2.786c-2.091-1.315-2.885-1.73-3.8-2.211-.717-.374-1.53-.8-3.213-1.8A5.169,5.169,0,0,0,29.473.816c-3.424,2.029-6.9,4.035-10.137,5.9a26.092,26.092,0,0,0-7.323,6.076A23.426,23.426,0,0,0,6.628,28.1c0,1.893,0,3.787,0,5.7l0,2.652v6.025c0,2.354,1.238,3.6,3.581,3.6l44.177,0a3.525,3.525,0,0,0,3.52-3.526c0-2.085.01-3.371.017-4.523C57.933,36.4,57.943,35.034,57.924,32.084ZM33.843,34.969c1.346-2.905,2.916-4.307,5.392-4.706a6.36,6.36,0,0,1-2.861,5.043,15.284,15.284,0,0,1-3.085,1.623A7.221,7.221,0,0,1,33.843,34.969Zm-5.788-3.212c-3.131-1.358-5.449-3.816-5.862-6.057a11.5,11.5,0,0,1,6.2,3.653A6.127,6.127,0,0,1,29.9,32.274,5.632,5.632,0,0,1,28.055,31.757Zm7.162-15.263a11.293,11.293,0,0,1-.48,6.775,15.305,15.305,0,0,1-2.7,3.558,18.2,18.2,0,0,1-.713-3.742A6.885,6.885,0,0,1,35.217,16.494Z" transform="translate(-6.626)" style="fill:#fafafa"/><path d="M24.365,57.7c0,.888,0,1.736,0,2.585a3.565,3.565,0,0,1-3.552,3.708,4.863,4.863,0,0,1-3.27-.858c-.254-.187-.351-.347-.106-.623.275-.31.474-.683.79-.993a4.556,4.556,0,0,0,1.585.659,3.223,3.223,0,0,0,1.436-.073,1.861,1.861,0,0,0,1.192-2.077,3.138,3.138,0,0,1-3.1.764A2.988,2.988,0,0,1,17,58.919,4.006,4.006,0,0,1,17.37,54.8a3.4,3.4,0,0,1,4.711-.719c.16.131.3.289.452.44.09-.1.043-.223.045-.332.009-.584.006-.6.573-.58.387.012.876-.17,1.133.094.239.246.073.724.077,1.1C24.372,55.751,24.365,56.705,24.365,57.7Zm-2.3-1.847a1.772,1.772,0,0,0-1.381-.71,2.068,2.068,0,0,0-2.137,2.435,2.013,2.013,0,0,0,1.731,1.667A1.849,1.849,0,0,0,22.4,57.914,2.386,2.386,0,0,0,22.067,55.85Z" transform="translate(-6.626)" style="fill:#fafafa"/><path d="M14.827,60.927a.613.613,0,0,1-.8-.519c-.118-.439-.306-.858-.451-1.29a.424.424,0,0,0-.461-.33q-1.713.014-3.426,0a.435.435,0,0,0-.479.354c-.156.483-.357.952-.511,1.436a.445.445,0,0,1-.517.353c-.508-.018-1.018-.005-1.5-.005-.125-.2-.025-.326.021-.451q1.7-4.6,3.4-9.2a.435.435,0,0,1,.48-.348c.564.019,1.129.016,1.693,0a.391.391,0,0,1,.429.3q1.715,4.661,3.438,9.316c.035.1.054.2.094.343A11.569,11.569,0,0,1,14.827,60.927ZM12,54.8l-.616-1.624L9.975,57.071h2.857C12.549,56.3,12.286,55.577,12,54.8Z" transform="translate(-6.626)" style="fill:#fafafa"/><path d="M35.294,60.959c-.39.026-.35-.226-.35-.448V53.65c0-.863.015-1.726-.008-2.588-.009-.354.117-.462.45-.437a6.484,6.484,0,0,0,.935,0c.315-.022.4.113.4.411-.012,1.11-.005,2.22-.005,3.315.113.082.167,0,.219-.044a3.206,3.206,0,0,1,3.629-.536,3.351,3.351,0,0,1,2.005,2.947,4.239,4.239,0,0,1-.862,3.233,3.318,3.318,0,0,1-4.945.244c-.014.02-.038.04-.039.06-.034.7-.033.7-.726.7ZM39.9,59.11a2.317,2.317,0,0,0,.824-2.052A2.02,2.02,0,0,0,38.139,55.2a1.89,1.89,0,0,0-1.4,1.7,2.162,2.162,0,0,0,.855,2.25A1.935,1.935,0,0,0,39.9,59.11Z" transform="translate(-6.626)" style="fill:#fafafa"/><path d="M48.64,58.3a2.3,2.3,0,0,0,.063-.812c0-1.152.013-2.3,0-3.458,0-.34.1-.477.451-.452s.71.015,1.065.005c.248-.006.354.086.354.343q-.009,3.34,0,6.68c0,.261-.109.346-.356.337a9,9,0,0,0-1.026,0c-.38.031-.538-.108-.486-.487a3.265,3.265,0,0,0,0-.378,3.036,3.036,0,0,1-1.477.952,2.565,2.565,0,0,1-3.414-2.574c0-1.48.01-2.96-.007-4.44,0-.35.112-.469.455-.442a6.224,6.224,0,0,0,.946,0c.352-.025.484.086.478.461-.021,1.322-.009,2.646-.005,3.969,0,.932.366,1.447,1.126,1.526A1.641,1.641,0,0,0,48.64,58.3Z" transform="translate(-6.626)" style="fill:#fafafa"/><path d="M53.616,53.509a4.641,4.641,0,0,1,2.7.143,2.335,2.335,0,0,1,1.462,1.815,9.969,9.969,0,0,1-1.493.347c-.146.034-.188-.108-.244-.213a1.6,1.6,0,0,0-2.149-.55.538.538,0,0,0-.027.927,2.349,2.349,0,0,0,1.166.432,7.6,7.6,0,0,1,1.414.327,2.071,2.071,0,0,1,1.48,1.823,2.179,2.179,0,0,1-1.064,2.11,4.191,4.191,0,0,1-4.361-.185,2.291,2.291,0,0,1-.8-1.236c-.053-.194-.032-.332.2-.381.461-.094.919-.2,1.39-.308.173.254.24.567.492.756a1.911,1.911,0,0,0,1.831.255.691.691,0,0,0,.525-.631.728.728,0,0,0-.491-.658,8.185,8.185,0,0,0-1.819-.472,2.212,2.212,0,0,1-1.92-1.689,2.025,2.025,0,0,1,1.384-2.5C53.386,53.584,53.486,53.554,53.616,53.509Z" transform="translate(-6.626)" style="fill:#fafafa"/><path d="M27.741,56.727c0,1.287-.016,2.539,0,3.791,0,.325-.1.443-.431.424-.368-.022-.738-.012-1.107,0-.231,0-.333-.08-.332-.319q.006-3.347,0-6.692c0-.2.061-.324.29-.322.422,0,.844.006,1.266,0,.241-.007.331.095.318.326-.011.193,0,.387,0,.648.164-.186.276-.324.4-.451a2.23,2.23,0,0,1,1.818-.69c.24.015.324.1.319.332-.01.4-.011.809,0,1.213.006.235-.09.317-.325.325a3.588,3.588,0,0,0-1.23.254A1.476,1.476,0,0,0,27.741,56.727Z" transform="translate(-6.626)" style="fill:#fafafa"/><path d="M33.276,58.319c0,.772-.01,1.5,0,2.236.005.288-.092.4-.386.385a8.109,8.109,0,0,0-.986,0c-.325.021-.433-.1-.43-.424.012-1.844.005-3.688.005-5.531,0-.367.007-.733,0-1.1,0-.218.089-.306.3-.3.355.007.712.018,1.065-.005.327-.02.432.1.429.424C33.268,55.429,33.276,56.855,33.276,58.319Z" transform="translate(-6.626)" style="fill:#fafafa"/><path d="M33.255,52.238a1.193,1.193,0,0,1-1.977-.289.874.874,0,0,1,.076-.741,1.257,1.257,0,0,1,1.625-.325A.916.916,0,0,1,33.255,52.238Z" transform="translate(-6.626)" style="fill:#fafafa"/></svg>